<svg width="1280" height="832" viewBox="0 0 1280 832" fill="none" xmlns="http://www.w3.org/2000/svg">
<g opacity="0.25">
<path d="M2409.54 2159.6C2017.52 2084.8 1736.07 1778.43 1550.95 1417.2C1413.11 1148.15 1298.61 853.847 1111.24 629.926C951.892 439.475 733.004 280.487 463.134 332.539C370.102 350.486 268.192 423.832 232.922 530.299C183.604 679.584 244.122 818.415 342.918 873.733C549.254 989.417 851.839 875.732 1101.2 697.981C1348.16 522.051 1665.75 276.072 1891.89 51.3078C2112.23 -167.81 2413.5 -435.213 2633.65 -611.907" stroke="#0B7DFF" stroke-width="2" stroke-miterlimit="10"/>
<path d="M2397.85 2134.1C2021.09 2065.3 1750.38 1772.83 1569.14 1429.75C1429.16 1164.72 1313.79 873.738 1128.76 650.364C967.493 455.637 745.09 294.719 470.742 344.478C379.37 361.107 276.977 430.059 242.092 534.426C194.537 676.918 257.94 806.352 354.063 856.568C567.342 968.138 873.846 849.257 1126.11 666.245C1376.1 485.043 1699.86 235.604 1929 7.19638C2141.04 -204.004 2422.68 -461.379 2632.92 -640.218" stroke="#0B7DFF" stroke-width="2" stroke-miterlimit="10"/>
<path d="M2386.05 2108.47C2024.6 2045.51 1764.55 1767.24 1587.24 1442.16C1445.07 1181.3 1329.09 893.618 1146.18 670.662C982.962 471.809 757.149 309.101 478.246 356.277C388.562 371.438 285.687 435.997 251.001 538.574C205.209 674.272 271.656 794.148 364.945 839.424C585.279 946.28 895.62 822.652 1150.72 634.679C1404.04 448.035 1734.08 195.274 1966.2 -36.7762C2169.86 -240.198 2431.87 -487.546 2632.32 -668.539" stroke="#0B7DFF" stroke-width="2" stroke-miterlimit="10"/>
<path d="M2374.22 2082.99C2028.07 2025.87 1778.44 1761.82 1605.33 1454.57C1460.79 1198.19 1344.37 913.648 1163.58 691.11C998.563 487.97 769.153 323.784 485.723 368.226C397.569 382.08 294.341 442.235 260.041 542.712C216.011 671.616 285.371 781.945 376.062 822.409C603.691 923.94 917.421 795.898 1175.58 603.242C1431.8 410.598 1768.2 154.805 2003.44 -80.8988C2198.71 -276.542 2441.19 -513.723 2631.71 -696.862" stroke="#0B7DFF" stroke-width="2" stroke-miterlimit="10"/>
<path d="M2362.42 2057.35C2031.55 2006.23 1792.33 1756.4 1623.42 1466.98C1476.38 1215.09 1359.54 933.539 1181 711.408C1014.09 503.842 781.184 338.316 493.228 380.025C406.733 392.561 303.181 448.162 268.949 546.86C226.682 668.971 298.982 769.602 386.945 805.265C622.137 900.711 939.269 769.583 1200.22 571.527C1459.84 373.729 1802.42 114.476 2040.65 -124.871C2227.66 -312.746 2450.37 -539.89 2631.11 -725.183" stroke="#0B7DFF" stroke-width="2" stroke-miterlimit="10"/>
<path d="M2350.73 2031.86C2035.16 1986.57 1806.29 1751.27 1641.49 1479.55C1491.66 1232.31 1374.82 953.568 1198.39 731.856C1029.69 520.004 793.105 353.448 500.573 391.984C415.608 403.214 311.704 454.41 277.727 551.019C237.222 666.336 312.359 757.13 397.696 788.132C641.01 876.56 961.146 743.118 1225 539.801C1487.91 336.709 1836.64 74.1459 2077.89 -168.994C2256.48 -348.94 2459.69 -566.067 2630.4 -753.645" stroke="#0B7DFF" stroke-width="2" stroke-miterlimit="10"/>
<path d="M2338.93 2006.23C2038.63 1966.93 1820 1746.16 1659.58 1491.96C1506.91 1249.68 1390.6 972.966 1215.81 752.154C1045.82 535.383 804.923 368.441 508.078 403.784C424.773 413.695 320.544 460.337 286.794 555.006C248.052 663.53 326.053 744.338 408.868 770.817C660.076 851.359 983.05 716.503 1249.64 508.086C1515.82 299.851 1871.04 34.2453 2115.13 -213.116C2285.51 -384.856 2468.9 -592.384 2629.8 -781.967" stroke="#0B7DFF" stroke-width="2" stroke-miterlimit="10"/>
<path d="M2327.1 1980.74C2042.11 1947.29 1833.51 1741.36 1677.68 1504.37C1521.84 1267.38 1405.46 993.178 1233.2 772.603C1060.94 552.027 816.658 383.885 515.555 415.733C433.779 424.337 329.329 466.565 295.675 559.305C258.826 661.025 339.327 731.728 419.695 753.974C679.252 825.559 1004.87 690.338 1274.21 476.821C1543.54 263.304 1904.87 -6.05162 2152.18 -256.927C2314.25 -421.338 2478.09 -618.55 2629.19 -810.288" stroke="#0B7DFF" stroke-width="2" stroke-miterlimit="10"/>
</g>
</svg>
